<svg width="64" height="64" viewBox="0 0 64 64" fill="none" xmlns="http://www.w3.org/2000/svg">
<rect x="5.00024" y="9.00012" width="53.9999" height="49.9999" rx="7.99998" fill="url(#paint0_linear_3007_6438)"/>
<g clip-path="url(#clip0_3007_6438)">
<rect x="5" y="5.00003" width="53.9999" height="49.9999" rx="7.99998" fill="url(#paint1_linear_3007_6438)"/>
<g clip-path="url(#clip1_3007_6438)">
<g clip-path="url(#clip2_3007_6438)">
<path d="M4.0874 53.7887L11.8374 53.7887C17.6983 53.7887 22.978 50.2431 25.1965 44.8181L26.5818 41.4372C28.7905 36.0219 34.0702 32.4762 39.9312 32.4762" stroke="#BBF7BB" stroke-width="5.8125" stroke-miterlimit="10" stroke-linecap="square"/>
<path d="M4.0874 43.1325L8.21428 43.1325C11.1205 43.1325 13.8718 41.8247 15.7124 39.5772L18.6187 36.0315C20.4593 33.784 23.2105 32.4762 26.1168 32.4762L37.0249 32.4762" stroke="#96DF96" stroke-width="5.8125" stroke-miterlimit="10" stroke-linecap="square"/>
<path d="M4.0874 11.1637L11.8374 11.1637C17.6983 11.1637 22.978 14.7094 25.1965 20.1344L26.5818 23.5153C28.7905 28.9306 34.0702 32.4762 39.9312 32.4762L40.8999 32.4762" stroke="#438F43" stroke-width="5.8125" stroke-miterlimit="10" stroke-linecap="square"/>
<path d="M4.0874 21.82L8.21428 21.82C11.1205 21.82 13.8718 23.1278 15.7124 25.3753L18.6187 28.9209C20.4593 31.1684 23.2105 32.4762 26.1168 32.4762L37.0249 32.4762" stroke="#62CF62" stroke-width="5.8125" stroke-miterlimit="10" stroke-linecap="square"/>
<path d="M42.783 25.1953C41.5625 23.9748 39.4755 24.8392 39.4755 26.5654L39.4755 38.3872C39.4755 40.1133 41.5625 40.9777 42.783 39.7572L48.6939 33.8463C49.4506 33.0896 49.4506 31.8629 48.6939 31.1062L42.783 25.1953Z" fill="#62CF62"/>
</g>
</g>
</g>
<rect x="5.7" y="5.70003" width="52.5999" height="48.5999" rx="7.29998" stroke="url(#paint2_linear_3007_6438)" stroke-width="1.4" style="mix-blend-mode:soft-light"/>
<defs>
<linearGradient id="paint0_linear_3007_6438" x1="5.00024" y1="59" x2="59.0001" y2="59" gradientUnits="userSpaceOnUse">
<stop stop-color="#225038"/>
<stop offset="0.05" stop-color="#386850"/>
<stop offset="0.15" stop-color="#183B29"/>
<stop offset="0.85" stop-color="#183B29"/>
<stop offset="0.95" stop-color="#386850"/>
<stop offset="1" stop-color="#225038"/>
</linearGradient>
<linearGradient id="paint1_linear_3007_6438" x1="32" y1="-16" x2="31.9999" y2="54.9999" gradientUnits="userSpaceOnUse">
<stop stop-color="#0C281A"/>
<stop offset="1" stop-color="#2F6A4C"/>
</linearGradient>
<linearGradient id="paint2_linear_3007_6438" x1="31.9999" y1="1.00004" x2="31.9999" y2="57" gradientUnits="userSpaceOnUse">
<stop stop-color="white" stop-opacity="0.9"/>
<stop offset="1" stop-color="white" stop-opacity="0.2"/>
</linearGradient>
<clipPath id="clip0_3007_6438">
<rect x="5" y="5.00003" width="53.9999" height="49.9999" rx="8" fill="white"/>
</clipPath>
<clipPath id="clip1_3007_6438">
<rect x="6.3999" y="5.00003" width="48" height="50" rx="9" fill="white"/>
</clipPath>
<clipPath id="clip2_3007_6438">
<rect width="73.8095" height="58.6667" fill="white" transform="translate(54.3999 -4.52377) rotate(90)"/>
</clipPath>
</defs>
</svg>
